{"title":"Koffee With Karan - Season 4 - Sonakshi Sinha and Shahid Kapoor","uid":9557804,"size":287619446,"categoryP":"video","categoryS":"tv_shows","magnet":"?xt=urn:btih:10a0e092b20881d30bc906dc7129734b96ce53e3&amp;dn=Koffee+With+Karan+-+Season+4+-+Sonakshi+Sinha+and+Shahid+Kapoor+&amp;tr=udp%3A%2F%2Ftracker.openbittorrent.com%3A80&amp;tr=udp%3A%2F%2Fopen.demonii.com%3A1337&amp;tr=udp%3A%2F%2Ftracker.coppersurfer.tk%3A6969&amp;tr=udp%3A%2F%2Fexodus.desync.com%3A6969","seeders":2,"leechers":0,"uploader":"ashish.p","files":3,"time":1391381253,"description":"General \n\nComplete name : Koffee With Karan - Season 4 - Sonakshi Sinha and Shahid Kapoor - 1 Feb 2014 -AshishRocks- { DAKU RG } \nFormat : Flash Video \nFile size : 274 MiB \nDuration : 45mn 45s \nOverall bit rate : 838 Kbps \nTagging application : lumberjack \nhasMetaData : Yes \naudiocodecname : AAC LC \nvideocodecname : H264/AVC &lt;a class=&quot;__cf_email__&quot; href=&quot;/cdn-cgi/l/email-protection&quot; data-cfemail=&quot;0f476668674f433c213e&quot;&gt;[email&amp;#160;protected]&lt;/a&gt;&lt;script cf-hash='f9e31' type=&quot;text/javascript&quot;&gt;\n/* &lt;![CDATA[ */!function(){try{var t=&quot;currentScript&quot;in document?document.currentScript:function(){for(var t=document.getElementsByTagName(&quot;script&quot;),e=t.length;e--;)if(t[e].getAttribute(&quot;cf-hash&quot;))return t[e]}();if(t&amp;&amp;t.previousSibling){var e,r,n,i,c=t.previousSibling,a=c.getAttribute(&quot;data-cfemail&quot;);if(a){for(e=&quot;&quot;,r=parseInt(a.substr(0,2),16),n=2;a.length-n;n+=2)i=parseInt(a.substr(n,2),16)^r,e+=String.fromCharCode(i);e=document.createTextNode(e),c.parentNode.replaceChild(e,c)}}}catch(u){}}();/* ]]&gt; */&lt;/script&gt; \n\nVideo \n\nFormat : AVC \nFormat/Info : Advanced Video Codec \nFormat profile : &lt;a class=&quot;__cf_email__&quot; href=&quot;/cdn-cgi/l/email-protection&quot; data-cfemail=&quot;4800212f2008047b6679&quot;&gt;[email&amp;#160;protected]&lt;/a&gt;&lt;script cf-hash='f9e31' type=&quot;text/javascript&quot;&gt;\n/* &lt;![CDATA[ */!function(){try{var t=&quot;currentScript&quot;in document?document.currentScript:function(){for(var t=document.getElementsByTagName(&quot;script&quot;),e=t.length;e--;)if(t[e].getAttribute(&quot;cf-hash&quot;))return t[e]}();if(t&amp;&amp;t.previousSibling){var e,r,n,i,c=t.previousSibling,a=c.getAttribute(&quot;data-cfemail&quot;);if(a){for(e=&quot;&quot;,r=parseInt(a.substr(0,2),16),n=2;a.length-n;n+=2)i=parseInt(a.substr(n,2),16)^r,e+=String.fromCharCode(i);e=document.createTextNode(e),c.parentNode.replaceChild(e,c)}}}catch(u){}}();/* ]]&gt; */&lt;/script&gt; \nFormat settings, CABAC : Yes \nFormat settings, ReFrames : 4 frames \nCodec ID : 7 \nDuration : 45mn 45s \nBit rate : 698 Kbps \nWidth : 848 pixels \nHeight : 480 pixels \nDisplay aspect ratio : 16:9 \nFrame rate mode : Constant \nFrame rate : 29.970 fps \nColor space : YUV \nChroma subsampling : 4:2:0 \nBit depth : 8 bits \nScan type : Progressive \nBits/(Pixel*Frame) : 0.057 \nStream size : 228 MiB (83%) \nWriting library : x264 core 140 r2377M 1ca7bb9 \n\nAudio \n\nFormat : AAC \nFormat/Info : Advanced Audio Codec \nFormat profile : LC \nCodec ID : 10 \nDuration : 45mn 44s \nBit rate : 127 Kbps \nChannel(s) : 2 channels \nChannel positions : Front: L R \nSampling rate : 44.1 KHz \nCompression mode : Lossy \nDelay relative to video : 44ms \nStream size : 41.6 MiB (15%) \n","torrent":{"xt":"urn:btih:10a0e092b20881d30bc906dc7129734b96ce53e3","amp;dn":"Koffee+With+Karan+-+Season+4+-+Sonakshi+Sinha+and+Shahid+Kapoor+","amp;tr":["udp%3A%2F%2Ftracker.openbittorrent.com%3A80","udp%3A%2F%2Fopen.demonii.com%3A1337","udp%3A%2F%2Ftracker.coppersurfer.tk%3A6969","udp%3A%2F%2Fexodus.desync.com%3A6969"],"infoHash":"10a0e092b20881d30bc906dc7129734b96ce53e3","infoHashBuffer":{"type":"Buffer","data":[16,160,224,146,178,8,129,211,11,201,6,220,113,41,115,75,150,206,83,227]},"announce":[],"urlList":[]}}